name ./resultDataOpenSim/trcMotMarkerGrf/sub09/grf-04-06.mot
datacolumns 19
datarows 25
range 0.50400000 0.60000000
endheader

                time	     ground_force_vx	     ground_force_vy	     ground_force_vz	     ground_force_px	     ground_force_py	     ground_force_pz	   l_ground_force_vx	   l_ground_force_vy	   l_ground_force_vz	   l_ground_force_px	   l_ground_force_py	   l_ground_force_pz	     ground_torque_x	     ground_torque_y	     ground_torque_z	   l_ground_torque_x	   l_ground_torque_y	   l_ground_torque_z	
          0.50400000	         38.77210979	        390.70226462	        -13.35545494	         -0.66405311	          0.00000000	          0.09099321	          0.00000000	          0.00000000	          0.00000000	          0.00000000	          0.00000000	          0.00000000	          0.00000000	          3.02973916	          0.00000000	          0.00000000	          0.00000000	          0.00000000	
          0.50800000	         41.37807613	        398.87817660	        -14.00568687	         -0.66342538	          0.00000000	          0.09118855	          0.00000000	          0.00000000	          0.00000000	          0.00000000	          0.00000000	          0.00000000	          0.00000000	          3.42670818	          0.00000000	          0.00000000	          0.00000000	          0.00000000	
          0.51200000	         43.74445719	        407.60080740	        -14.98186809	         -0.66243128	          0.00000000	          0.09142537	          0.00000000	          0.00000000	          0.00000000	          0.00000000	          0.00000000	          0.00000000	          0.00000000	          3.78812252	          0.00000000	          0.00000000	          0.00000000	          0.00000000	
          0.51600000	         45.81713727	        416.68328684	        -16.37085011	         -0.66105127	          0.00000000	          0.09170574	          0.00000000	          0.00000000	          0.00000000	          0.00000000	          0.00000000	          0.00000000	          0.00000000	          4.09176593	          0.00000000	          0.00000000	          0.00000000	          0.00000000	
          0.52000000	         47.56486762	        425.97154471	        -18.17094352	         -0.65929711	          0.00000000	          0.09202190	          0.00000000	          0.00000000	          0.00000000	          0.00000000	          0.00000000	          0.00000000	          0.00000000	          4.33086857	          0.00000000	          0.00000000	          0.00000000	          0.00000000	
          0.52400000	         48.98136161	        435.37355979	        -20.29386239	         -0.65719940	          0.00000000	          0.09236680	          0.00000000	          0.00000000	          0.00000000	          0.00000000	          0.00000000	          0.00000000	          0.00000000	          4.51374591	          0.00000000	          0.00000000	          0.00000000	          0.00000000	
          0.52800000	         50.08828774	        444.86403121	        -22.58753217	         -0.65479512	          0.00000000	          0.09272616	          0.00000000	          0.00000000	          0.00000000	          0.00000000	          0.00000000	          0.00000000	          0.00000000	          4.66014975	          0.00000000	          0.00000000	          0.00000000	          0.00000000	
          0.53200000	         50.94575076	        454.48140991	        -24.87014876	         -0.65213122	          0.00000000	          0.09307628	          0.00000000	          0.00000000	          0.00000000	          0.00000000	          0.00000000	          0.00000000	          0.00000000	          4.79545990	          0.00000000	          0.00000000	          0.00000000	          0.00000000	
          0.53600000	         51.66319837	        464.31901268	        -26.96611141	         -0.64927930	          0.00000000	          0.09339417	          0.00000000	          0.00000000	          0.00000000	          0.00000000	          0.00000000	          0.00000000	          0.00000000	          4.94410025	          0.00000000	          0.00000000	          0.00000000	          0.00000000	
          0.54000000	         52.39580421	        474.50981699	        -28.73871102	         -0.64632906	          0.00000000	          0.09366420	          0.00000000	          0.00000000	          0.00000000	          0.00000000	          0.00000000	          0.00000000	          0.00000000	          5.12351032	          0.00000000	          0.00000000	          0.00000000	          0.00000000	
          0.54400000	         53.32231603	        485.20618346	        -30.11545230	         -0.64337514	          0.00000000	          0.09387785	          0.00000000	          0.00000000	          0.00000000	          0.00000000	          0.00000000	          0.00000000	          0.00000000	          5.33979264	          0.00000000	          0.00000000	          0.00000000	          0.00000000	
          0.54800000	         54.61509524	        496.54938319	        -31.10162689	         -0.64049848	          0.00000000	          0.09403382	          0.00000000	          0.00000000	          0.00000000	          0.00000000	          0.00000000	          0.00000000	          0.00000000	          5.58588560	          0.00000000	          0.00000000	          0.00000000	          0.00000000	
          0.55200000	         56.41555888	        508.63697899	        -31.77871532	         -0.63775085	          0.00000000	          0.09413997	          0.00000000	          0.00000000	          0.00000000	          0.00000000	          0.00000000	          0.00000000	          0.00000000	          5.84274240	          0.00000000	          0.00000000	          0.00000000	          0.00000000	
          0.55600000	         58.82187572	        521.50849284	        -32.28596870	         -0.63515728	          0.00000000	          0.09420894	          0.00000000	          0.00000000	          0.00000000	          0.00000000	          0.00000000	          0.00000000	          0.00000000	          6.08345115	          0.00000000	          0.00000000	          0.00000000	          0.00000000	
          0.56000000	         61.88614752	        535.15555204	        -32.78678185	         -0.63272692	          0.00000000	          0.09424872	          0.00000000	          0.00000000	          0.00000000	          0.00000000	          0.00000000	          0.00000000	          0.00000000	          6.27955195	          0.00000000	          0.00000000	          0.00000000	          0.00000000	
          0.56400000	         65.61528371	        549.53911161	        -33.42600435	         -0.63046213	          0.00000000	          0.09425766	          0.00000000	          0.00000000	          0.00000000	          0.00000000	          0.00000000	          0.00000000	          0.00000000	          6.40820511	          0.00000000	          0.00000000	          0.00000000	          0.00000000	
          0.56800000	         69.97436905	        564.59457738	        -34.28656665	         -0.62836385	          0.00000000	          0.09422612	          0.00000000	          0.00000000	          0.00000000	          0.00000000	          0.00000000	          0.00000000	          0.00000000	          6.45856085	          0.00000000	          0.00000000	          0.00000000	          0.00000000	
          0.57200000	         74.89436959	        580.22252514	        -35.35289193	         -0.62643199	          0.00000000	          0.09413885	          0.00000000	          0.00000000	          0.00000000	          0.00000000	          0.00000000	          0.00000000	          0.00000000	          6.43578006	          0.00000000	          0.00000000	          0.00000000	          0.00000000	
          0.57600000	         80.28310611	        596.27730828	        -36.49270603	         -0.62466447	          0.00000000	          0.09397572	          0.00000000	          0.00000000	          0.00000000	          0.00000000	          0.00000000	          0.00000000	          0.00000000	          6.36163710	          0.00000000	          0.00000000	          0.00000000	          0.00000000	
          0.58000000	         86.03623159	        612.56796401	        -37.47753440	         -0.62304370	          0.00000000	          0.09371763	          0.00000000	          0.00000000	          0.00000000	          0.00000000	          0.00000000	          0.00000000	          0.00000000	          6.27139432	          0.00000000	          0.00000000	          0.00000000	          0.00000000	
          0.58400000	         92.05076553	        628.87234512	        -38.04977786	         -0.62153967	          0.00000000	          0.09335459	          0.00000000	          0.00000000	          0.00000000	          0.00000000	          0.00000000	          0.00000000	          0.00000000	          6.20749036	          0.00000000	          0.00000000	          0.00000000	          0.00000000	
          0.58800000	         98.24382977	        644.95642784	        -38.00217941	         -0.62012887	          0.00000000	          0.09289437	          0.00000000	          0.00000000	          0.00000000	          0.00000000	          0.00000000	          0.00000000	          0.00000000	          6.21128428	          0.00000000	          0.00000000	          0.00000000	          0.00000000	
          0.59200000	        104.56995775	        660.59118453	        -37.22308084	         -0.61880372	          0.00000000	          0.09235929	          0.00000000	          0.00000000	          0.00000000	          0.00000000	          0.00000000	          0.00000000	          0.00000000	          6.31446259	          0.00000000	          0.00000000	          0.00000000	          0.00000000	
          0.59600000	        111.02626068	        675.56262844	        -35.70895757	         -0.61756344	          0.00000000	          0.09177641	          0.00000000	          0.00000000	          0.00000000	          0.00000000	          0.00000000	          0.00000000	          0.00000000	          6.53176683	          0.00000000	          0.00000000	          0.00000000	          0.00000000	
          0.60000000	        117.64101798	        689.68119259	        -33.56819881	         -0.61641778	          0.00000000	          0.09117326	          0.00000000	          0.00000000	          0.00000000	          0.00000000	          0.00000000	          0.00000000	          0.00000000	          6.85658297	          0.00000000	          0.00000000	          0.00000000	          0.00000000	
